<?xml version="1.0" encoding="utf-8"?>
<!-- Generator: Adobe Illustrator 17.0.0, SVG Export Plug-In . SVG Version: 6.00 Build 0)  -->
<!DOCTYPE svg PUBLIC "-//W3C//DTD SVG 1.1//EN" "http://www.w3.org/Graphics/SVG/1.1/DTD/svg11.dtd">
<svg version="1.1" id="Calque_1" xmlns="http://www.w3.org/2000/svg" xmlns:xlink="http://www.w3.org/1999/xlink" x="0px" y="0px"
	 width="424.625px" height="183.361px" viewBox="0 0 424.625 183.361" enable-background="new 0 0 424.625 183.361"
	 xml:space="preserve">
<g>
	<path fill="#FFFFFF" d="M259.818,48.559c0.034,0,0.068,0,0.102,0c0-8.646,0.039-17.292-0.024-25.938
		c-0.018-2.513-0.035-5.085-0.556-7.523C257.822,8,253.538,3.223,246.558,1.035c-3.389-1.062-6.917-1.04-10.431-1.034
		c-15.481,0.026-30.963,0.043-46.444,0.06c-3.412,0.004-6.832-0.202-10.189,0.697c-6.464,1.732-10.878,5.7-13.095,12.02
		c-0.872,2.485-1.129,5.106-1.147,7.725c-0.035,4.93,0.034,9.86,0.032,14.79c-0.005,12.844-0.04,25.688-0.026,38.532
		c0.003,2.588-0.076,5.213,0.307,7.756c1.131,7.51,5.251,12.715,12.525,15.211c3.367,1.155,6.891,1.221,10.407,1.205
		c4.77-0.022,9.54-0.085,14.309-0.102c13.095-0.048,26.194,0.094,39.283-0.188c7.366-0.158,12.701-4.062,15.932-10.663
		c1.574-3.215,1.811-6.759,1.88-10.277c0.057-2.91-0.072-5.823-0.078-8.735C259.808,61.541,259.818,55.05,259.818,48.559z"/>
	<path fill="#FFFFFF" d="M259.818,48.559c0,6.491-0.01,12.982,0.005,19.473c0.007,2.912,0.135,5.825,0.078,8.735
		c-0.069,3.518-0.306,7.063-1.88,10.277c-3.232,6.6-8.566,10.504-15.932,10.663c-13.09,0.282-26.189,0.14-39.283,0.188
		c-4.77,0.017-9.54,0.081-14.309,0.102c-3.516,0.016-7.039-0.05-10.407-1.205c-7.275-2.496-11.394-7.701-12.525-15.211
		c-0.383-2.544-0.305-5.169-0.307-7.756c-0.014-12.844,0.021-25.688,0.026-38.532c0.002-4.93-0.067-9.86-0.032-14.79
		c0.019-2.619,0.276-5.24,1.147-7.725c2.217-6.319,6.631-10.288,13.095-12.02c3.357-0.899,6.777-0.694,10.189-0.697
		c15.481-0.017,30.963-0.034,46.444-0.06c3.514-0.006,7.041-0.029,10.431,1.034c6.98,2.188,11.264,6.965,12.782,14.063
		c0.521,2.437,0.538,5.01,0.556,7.523c0.063,8.646,0.024,17.292,0.024,25.938C259.886,48.559,259.852,48.559,259.818,48.559z
		 M253.579,48.962c0.007,0,0.014,0,0.021,0c0-1.811,0.005-3.623-0.001-5.434c-0.027-7.911-0.058-15.823-0.088-23.734
		c-0.017-4.508-1.659-8.208-5.391-10.876c-2.256-1.613-4.833-2.173-7.535-2.223c-3.759-0.069-7.519-0.077-11.278-0.085
		c-6.489-0.012-12.979-0.005-19.468-0.005c-5.94,0-11.88-0.017-17.82,0.01c-2.934,0.013-5.884-0.07-8.797,0.204
		c-4.694,0.441-8.318,2.681-10.42,7.051c-0.851,1.768-1.194,3.661-1.204,5.604c-0.022,4.678-0.001,9.355-0.004,14.033
		c-0.003,5.137-0.022,10.274-0.018,15.412c0.007,9.975-0.023,19.951,0.056,29.926c0.043,5.386,3.348,10.02,8.317,11.644
		c1.625,0.531,3.419,0.712,5.142,0.749c4.607,0.099,9.217,0.032,13.825,0.034c13.256,0.005,26.511,0.016,39.767,0.015
		c2.268,0,4.553,0.068,6.71-0.831c4.621-1.926,7.409-5.326,7.929-10.338c0.269-2.592,0.237-5.221,0.247-7.833
		C253.597,64.51,253.579,56.736,253.579,48.962z"/>
	<path fill="#F44336" d="M253.579,48.962c0,7.774,0.018,15.548-0.01,23.322c-0.01,2.612,0.022,5.241-0.247,7.833
		c-0.519,5.012-3.308,8.412-7.929,10.338c-2.157,0.899-4.442,0.831-6.71,0.831c-13.256,0.001-26.511-0.01-39.767-0.015
		c-4.609-0.002-9.219,0.065-13.825-0.034c-1.723-0.037-3.516-0.218-5.142-0.749c-4.968-1.624-8.274-6.258-8.317-11.644
		c-0.079-9.975-0.05-19.951-0.056-29.926c-0.003-5.137,0.015-10.274,0.018-15.412c0.003-4.678-0.018-9.355,0.004-14.033
		c0.009-1.944,0.353-3.836,1.204-5.604c2.102-4.371,5.726-6.611,10.42-7.051c2.913-0.274,5.863-0.191,8.797-0.204
		c5.94-0.026,11.88-0.009,17.82-0.01c6.489,0,12.979-0.008,19.468,0.005c3.759,0.007,7.519,0.015,11.278,0.085
		c2.702,0.05,5.279,0.61,7.535,2.223c3.732,2.668,5.374,6.368,5.391,10.876c0.029,7.911,0.06,15.823,0.088,23.734
		c0.006,1.811,0.001,3.623,0.001,5.434C253.593,48.962,253.586,48.962,253.579,48.962z M251.368,49.46c0.008,0,0.016,0,0.025,0
		c0-8.898,0.02-17.797-0.017-26.695c-0.008-1.802-0.046-3.642-0.397-5.399c-0.922-4.619-5.006-8.164-9.695-8.516
		c-2.284-0.171-4.581-0.212-6.872-0.216c-5.045-0.011-10.09,0.052-15.135,0.062c-11.351,0.023-22.702,0.023-34.053,0.066
		c-0.997,0.004-2.016,0.165-2.986,0.407c-5.047,1.259-8.332,5.374-8.41,10.566c-0.073,4.838-0.096,9.677-0.099,14.516
		c-0.006,9.701,0.015,19.402,0.029,29.103c0.007,4.77,0.009,9.54,0.041,14.31c0.027,4.001,1.587,7.245,4.879,9.592
		c1.958,1.396,4.177,1.939,6.55,1.948c4.7,0.017,9.401,0.04,14.101,0.044c8.669,0.007,17.338,0.005,26.008,0.001
		c5.09-0.002,10.183,0.079,15.27-0.058c3.68-0.099,6.608-1.833,8.76-4.84c1.688-2.359,2.009-5.058,2.006-7.854
		C251.361,67.485,251.368,58.472,251.368,49.46z"/>
	<path fill="#FFFFFF" d="M251.368,49.46c0,9.013-0.007,18.026,0.004,27.038c0.004,2.796-0.317,5.495-2.006,7.854
		c-2.152,3.007-5.08,4.74-8.76,4.84c-5.087,0.137-10.18,0.055-15.27,0.058c-8.669,0.004-17.338,0.006-26.008-0.001
		c-4.7-0.004-9.401-0.027-14.101-0.044c-2.373-0.009-4.592-0.551-6.55-1.948c-3.292-2.347-4.852-5.591-4.879-9.592
		c-0.033-4.77-0.034-9.54-0.041-14.31c-0.014-9.701-0.035-19.402-0.029-29.103c0.003-4.839,0.026-9.678,0.099-14.516
		c0.078-5.192,3.363-9.307,8.41-10.566c0.97-0.242,1.989-0.403,2.986-0.407c11.351-0.043,22.702-0.043,34.053-0.066
		c5.045-0.01,10.09-0.072,15.135-0.062c2.291,0.005,4.589,0.045,6.872,0.216c4.689,0.352,8.773,3.897,9.695,8.516
		c0.351,1.757,0.389,3.596,0.397,5.399c0.038,8.898,0.017,17.797,0.017,26.695C251.385,49.46,251.376,49.46,251.368,49.46z
		 M175.94,48.636c0.009,0,0.019,0,0.028,0c0,4.587-0.003,9.175,0.001,13.762c0.003,4.931,0.002,9.863,0.022,14.794
		c0.013,3.102,1.092,5.732,3.531,7.735c1.761,1.446,3.837,2.06,6.057,2.12c2.588,0.07,5.18-0.01,7.77-0.01
		c15.345-0.004,30.69,0.012,46.035-0.012c5.519-0.009,9.428-3.671,9.682-9.191c0.186-4.052,0.155-8.116,0.156-12.175
		c0.005-14.45-0.012-28.901-0.042-43.351c-0.002-1.142-0.087-2.296-0.27-3.423c-0.75-4.619-3.675-7.421-8.327-7.858
		c-2.118-0.199-4.26-0.173-6.392-0.18c-6.949-0.02-13.898-0.002-20.847-0.009c-6.995-0.007-13.99-0.041-20.985-0.035
		c-2.43,0.002-4.864,0.021-7.29,0.145c-5.046,0.258-8.865,4.104-9.087,9.134c-0.088,1.991-0.041,3.989-0.042,5.983
		C175.938,33.589,175.94,41.112,175.94,48.636z"/>
	<path fill="#F44336" d="M175.94,48.636c0-7.523-0.002-15.046,0.001-22.57c0.001-1.995-0.045-3.992,0.042-5.983
		c0.222-5.03,4.041-8.876,9.087-9.134c2.426-0.124,4.86-0.143,7.29-0.145c6.995-0.005,13.99,0.028,20.985,0.035
		c6.949,0.007,13.898-0.011,20.847,0.009c2.131,0.006,4.274-0.019,6.392,0.18c4.652,0.437,7.577,3.239,8.327,7.858
		c0.183,1.126,0.268,2.281,0.27,3.423c0.03,14.45,0.047,28.901,0.042,43.351c-0.001,4.059,0.03,8.123-0.156,12.175
		c-0.254,5.52-4.163,9.183-9.682,9.191c-15.345,0.024-30.69,0.009-46.035,0.012c-2.59,0.001-5.182,0.08-7.77,0.01
		c-2.22-0.06-4.296-0.674-6.057-2.12c-2.439-2.003-3.518-4.633-3.531-7.735c-0.02-4.931-0.019-9.863-0.022-14.794
		c-0.003-4.587-0.001-9.175-0.001-13.762C175.958,48.636,175.949,48.636,175.94,48.636z M214.65,56.075
		c0-1.72,0.02-3.441-0.012-5.16c-0.01-0.539,0.122-0.857,0.632-1.129c1.425-0.758,2.285-1.954,2.455-3.587
		c0.059-0.568,0.109-1.146,0.074-1.714c-0.048-0.788,0.245-1.361,0.85-1.84c0.484-0.383,0.928-0.818,1.377-1.244
		c2.014-1.907,4.012-3.831,6.039-5.725c0.937-0.876,0.972-0.87,2.094-0.273c2.029,1.079,4.138,1.665,6.475,1.408
		c5.882-0.647,10.226-5.514,10.131-11.426c-0.093-5.796-4.638-10.536-10.474-10.927c-4.877-0.326-9.348,2.454-11.129,6.94
		c-1.268,3.194-1.078,6.31,0.497,9.369c0.519,1.008,0.46,1.041-0.354,1.808c-2.62,2.468-5.244,4.931-7.851,7.412
		c-0.307,0.292-0.581,0.384-0.976,0.24c-1.253-0.455-2.512-0.475-3.769-0.005c-0.429,0.16-0.75,0.065-1.101-0.269
		c-2.637-2.517-5.281-5.027-7.966-7.492c-0.562-0.516-0.603-0.95-0.232-1.529c0.062-0.096,0.111-0.201,0.159-0.305
		c1.961-4.196,1.773-8.261-1.187-11.879c-3.045-3.721-7.085-5.18-11.809-3.981c-5.516,1.4-8.943,6.992-8.039,12.803
		c1.095,7.04,8.886,11.268,15.371,8.338c0.543-0.245,1.084-0.5,1.607-0.784c0.489-0.265,0.883-0.217,1.284,0.181
		c1.074,1.065,2.167,2.111,3.256,3.16c1.585,1.527,3.183,3.041,4.748,4.588c0.233,0.23,0.479,0.63,0.445,0.919
		c-0.296,2.524,0.495,4.518,2.726,5.838c0.435,0.257,0.556,0.573,0.548,1.061c-0.053,3.278-0.08,6.557-0.108,9.836
		c-0.011,1.354,0.009,1.396-1.293,1.758c-2.135,0.594-3.853,1.799-5.246,3.48c-2.977,3.592-3.324,8.829-0.889,12.951
		c2.404,4.07,6.955,6.068,11.807,5.183c4.34-0.792,7.757-4.161,8.677-8.558c0.979-4.679-0.762-9.222-4.617-11.722
		c-1.02-0.661-2.22-1.064-3.372-1.495c-0.589-0.22-0.873-0.444-0.848-1.139C214.693,59.471,214.651,57.772,214.65,56.075z"/>
	<path fill="#FFFFFF" d="M214.651,56.075c0,1.697,0.042,3.396-0.02,5.091c-0.025,0.695,0.259,0.919,0.848,1.139
		c1.151,0.431,2.352,0.833,3.372,1.495c3.856,2.501,5.596,7.044,4.617,11.722c-0.92,4.397-4.336,7.767-8.677,8.558
		c-4.852,0.885-9.403-1.113-11.807-5.183c-2.434-4.122-2.087-9.36,0.889-12.951c1.393-1.681,3.111-2.887,5.246-3.48
		c1.303-0.362,1.282-0.404,1.293-1.758c0.028-3.279,0.055-6.558,0.108-9.836c0.008-0.488-0.113-0.803-0.548-1.061
		c-2.232-1.32-3.022-3.314-2.726-5.838c0.034-0.289-0.212-0.689-0.445-0.919c-1.565-1.547-3.163-3.061-4.748-4.588
		c-1.089-1.05-2.182-2.095-3.256-3.16c-0.401-0.398-0.795-0.446-1.284-0.181c-0.523,0.284-1.064,0.538-1.607,0.784
		c-6.485,2.93-14.276-1.298-15.371-8.338c-0.904-5.812,2.523-11.404,8.039-12.803c4.724-1.199,8.763,0.26,11.809,3.981
		c2.961,3.618,3.148,7.683,1.187,11.879c-0.049,0.104-0.097,0.209-0.159,0.305c-0.371,0.58-0.33,1.013,0.232,1.529
		c2.685,2.465,5.329,4.975,7.966,7.492c0.35,0.334,0.672,0.429,1.101,0.269c1.257-0.47,2.516-0.45,3.769,0.005
		c0.395,0.143,0.669,0.052,0.976-0.24c2.607-2.481,5.231-4.945,7.851-7.412c0.814-0.767,0.873-0.8,0.354-1.808
		c-1.575-3.058-1.765-6.175-0.497-9.369c1.781-4.486,6.252-7.266,11.129-6.94c5.837,0.39,10.381,5.131,10.474,10.927
		c0.095,5.912-4.249,10.778-10.131,11.426c-2.337,0.257-4.445-0.328-6.475-1.408c-1.122-0.597-1.156-0.603-2.094,0.273
		c-2.027,1.894-4.025,3.818-6.039,5.725c-0.449,0.425-0.893,0.86-1.377,1.244c-0.605,0.48-0.899,1.053-0.85,1.84
		c0.035,0.568-0.015,1.145-0.074,1.714c-0.17,1.633-1.029,2.83-2.455,3.587c-0.511,0.271-0.642,0.59-0.632,1.129
		C214.67,52.634,214.65,54.355,214.651,56.075z M210.341,70.027c-0.347-0.223-0.629-0.411-0.92-0.587
		c-0.537-0.326-1.019-0.274-1.325,0.305c-0.372,0.701-0.832,1.396-1.009,2.15c-0.504,2.15,0.535,4.615,2.41,5.81
		c1.969,1.256,4.026,1.338,6.036,0.109c1.877-1.147,2.899-3.649,2.508-5.865c-0.163-0.927-0.508-1.765-1.185-2.432
		c-0.142-0.14-0.423-0.299-0.567-0.247c-0.501,0.182-0.97,0.452-1.287,0.607c0.455,1.103,1.073,2.071,1.223,3.108
		c0.164,1.132-0.41,2.183-1.346,2.943c-1.346,1.094-3.372,1.071-4.701-0.049c-0.697-0.587-1.091-1.347-1.255-2.232
		C208.654,72.185,209.407,71.094,210.341,70.027z M229.843,26.111c0.566-3.094,1.575-4.236,3.612-4.148
		c1.923,0.082,3.649,1.535,3.793,3.179c0.091,1.034-0.217,1.942-0.814,2.772c-0.851,1.183-2.153,1.268-3.526,1.384
		c0.123,0.648,0.235,1.24,0.363,1.913c0.554-0.077,1.056-0.107,1.539-0.22c2.644-0.617,4.475-3.032,4.342-5.697
		c-0.134-2.682-2.262-4.878-5.063-5.224c-2.526-0.312-5.124,1.411-5.881,3.902c-0.447,1.471-0.4,1.56,1.059,1.985
		C229.439,26.007,229.614,26.05,229.843,26.111z M195.298,25.988c1.84-0.126,2.126-0.535,1.558-2.229
		c-0.928-2.769-4.32-4.344-7.221-3.351c-2.842,0.973-4.294,4.169-3.243,7.141c0.789,2.232,2.72,3.674,4.844,3.587
		c0.207-0.009,0.525-0.137,0.589-0.293c0.196-0.475,0.293-0.991,0.429-1.495c-3.376-0.638-4.449-1.636-4.324-3.962
		c0.098-1.821,1.569-3.304,3.411-3.439C193.502,21.787,194.709,23.021,195.298,25.988z"/>
	<path fill="#F44336" d="M210.341,70.027c-0.934,1.067-1.687,2.159-1.415,3.621c0.164,0.885,0.558,1.644,1.255,2.232
		c1.329,1.121,3.355,1.143,4.701,0.049c0.936-0.76,1.51-1.811,1.346-2.943c-0.15-1.036-0.768-2.005-1.223-3.108
		c0.316-0.155,0.785-0.426,1.287-0.607c0.144-0.052,0.425,0.107,0.567,0.247c0.677,0.667,1.022,1.505,1.185,2.432
		c0.391,2.216-0.632,4.718-2.508,5.865c-2.011,1.229-4.067,1.146-6.036-0.109c-1.875-1.195-2.914-3.661-2.41-5.81
		c0.177-0.755,0.637-1.45,1.009-2.15c0.307-0.578,0.788-0.631,1.325-0.305C209.711,69.615,209.994,69.804,210.341,70.027z"/>
	<path fill="#F44336" d="M229.843,26.111c-0.23-0.061-0.404-0.104-0.577-0.155c-1.458-0.424-1.506-0.514-1.059-1.985
		c0.757-2.491,3.355-4.214,5.881-3.902c2.801,0.346,4.928,2.542,5.063,5.224c0.133,2.665-1.698,5.08-4.342,5.697
		c-0.483,0.113-0.985,0.143-1.539,0.22c-0.128-0.673-0.24-1.266-0.363-1.913c1.372-0.116,2.675-0.202,3.526-1.384
		c0.597-0.83,0.905-1.738,0.814-2.772c-0.144-1.644-1.87-3.096-3.793-3.179C231.419,21.876,230.409,23.018,229.843,26.111z"/>
	<path fill="#F44336" d="M195.298,25.988c-0.589-2.967-1.797-4.201-3.957-4.042c-1.842,0.135-3.313,1.619-3.411,3.439
		c-0.125,2.326,0.948,3.323,4.324,3.962c-0.137,0.504-0.234,1.02-0.429,1.495c-0.064,0.156-0.382,0.284-0.589,0.293
		c-2.123,0.088-4.055-1.355-4.844-3.587c-1.051-2.972,0.401-6.168,3.243-7.141c2.9-0.993,6.293,0.582,7.221,3.351
		C197.424,25.453,197.139,25.861,195.298,25.988z"/>
</g>
<g>
	<path fill="#FFFFFF" d="M4.601,181.06c0,1.473-0.644,2.301-2.3,2.301S0,182.532,0,181.06v-33.491h15.458
		c3.634,0,7.269,2.576,7.269,6.671v3.174c0,4.324-3.588,6.533-7.269,6.533h-4.232l10.351,14.813c0.506,0.689,1.15,1.564,1.15,2.438
		c0,1.288-1.058,2.162-2.346,2.162c-0.92,0-1.519-0.553-2.024-1.288L5.659,163.947H4.601V181.06z M4.601,159.346h10.213
		c1.288,0,3.312-0.093,3.312-1.933v-3.174c0-1.841-1.886-2.07-3.267-2.07H4.601V159.346z"/>
	<path fill="#FFFFFF" d="M39.827,162.98c-1.289,0-3.037-0.275-3.037-2.208c0-1.886,1.564-2.208,3.037-2.208h6.072
		c2.3,0,3.957,0.229,5.705,1.978c1.702,1.703,1.932,3.037,1.978,5.245l0.46,14.998c0.046,1.288-0.598,2.576-2.07,2.576
		c-1.15,0-2.3-0.967-2.254-2.209l-3.037,1.564c-1.242,0.645-1.288,0.645-2.714,0.645h-4.232c-1.978,0-3.404-0.23-5.015-1.564
		c-1.84-1.519-2.3-3.128-2.3-5.429v-1.932c0-2.117,0.506-3.451,2.163-4.923c1.518-1.334,3.22-1.656,5.152-1.656h9.477v-1.013
		c0-3.312-0.736-3.864-3.91-3.864H39.827z M39.781,172.273c-1.196,0-2.944,0.322-2.944,1.933v2.944c0,1.472,1.794,1.794,2.853,1.794
		h4.876l4.876-2.53v-0.966c0-2.438-0.69-3.175-3.128-3.175H39.781z"/>
	<path fill="#FFFFFF" d="M76.646,158.564c1.518,0,2.76,0.828,4.371,2.438l0.736,0.781v-9.293c0-1.518,0.322-3.036,2.208-3.036
		s2.208,1.519,2.208,3.036v27.787c0,1.519-0.322,3.083-2.208,3.083c-1.749,0-2.208-1.473-2.208-2.944v-0.276l-0.966,0.966
		c-1.38,1.288-2.898,2.255-4.233,2.255h-4.278c-1.472,0-3.128-1.013-3.772-1.564l-1.518-1.288c-1.84-1.564-2.438-2.761-2.438-5.106
		v-8.879c0-2.347,0.598-3.543,2.438-5.106l1.518-1.288c1.38-1.196,2.393-1.564,4.232-1.564H76.646z M68.962,173.654
		c0,1.242,0,2.806,0.69,3.358l1.334,1.058c0.552,0.46,1.104,0.874,1.656,0.874h3.128c0.552,0,1.334-0.368,2.162-1.104l2.53-2.163
		c0.644-0.552,1.288-1.104,1.288-1.932v-5.566c0-0.828-0.644-1.381-1.288-1.933l-2.53-2.162c-0.828-0.736-1.61-1.104-2.162-1.104
		h-3.128c-0.552,0-1.104,0.414-1.656,0.874l-1.334,1.059c-0.69,0.552-0.69,2.116-0.69,3.358V173.654z"/>
	<path fill="#FFFFFF" d="M108.688,178.944H112c1.472,0,3.037,0.322,3.037,2.208c0,1.933-1.748,2.209-3.037,2.209h-11.225
		c-1.288,0-3.036-0.276-3.036-2.209c0-1.886,1.564-2.208,3.036-2.208h3.497V162.98h-3.497c-1.288,0-3.036-0.275-3.036-2.208
		c0-1.886,1.564-2.208,3.036-2.208h4.646c2.53,0,3.267,0.46,3.267,3.082V178.944z M102.018,149.639c0-1.564,0.874-2.07,2.07-2.07
		h2.53c1.196,0,2.07,0.506,2.07,2.07v2.116c0,1.563-0.874,2.07-2.07,2.07h-2.53c-1.196,0-2.07-0.507-2.07-2.07V149.639z"/>
	<path fill="#FFFFFF" d="M147.669,180.094c0,1.012,0.184,3.267-2.162,3.267c-1.886,0-2.208-1.564-2.208-3.083v-0.735l-3.588,2.346
		c-1.426,0.92-2.622,1.473-3.818,1.473h-3.266c-1.242,0-2.623-0.368-4.095-1.61c-1.978-1.702-1.932-3.589-2.024-5.98l-0.46-13.894
		c-0.046-1.61,0.184-3.312,2.208-3.312c1.886,0,2.116,1.61,2.162,3.036l0.46,13.571c0.046,1.013,0.092,2.209,0.46,2.853
		c0.368,0.645,1.519,0.92,2.577,0.92h1.472c0.506,0,0.966-0.138,1.38-0.414l6.487-4.094V161.6c0-1.519,0.322-3.036,2.208-3.036
		s2.208,1.518,2.208,3.036V180.094z"/>
	<path fill="#FFFFFF" d="M171.721,165.97v14.354c0,1.518-0.322,3.036-2.208,3.036s-2.208-1.519-2.208-3.036v-14.769
		c0-0.735,0.092-2.116-1.058-2.116c-0.506,0-0.828,0.414-1.196,0.736l-1.933,1.794v14.354c0,1.518-0.322,3.036-2.208,3.036
		s-2.208-1.519-2.208-3.036v-18.633c0-1.563,0.414-3.128,2.3-3.128c1.104,0,1.84,0.736,2.116,1.748l0.368-0.276
		c1.15-0.874,1.84-1.472,3.358-1.472c1.702,0,3.037,0.828,4.048,2.208l0.368-0.368c1.38-1.38,1.932-1.84,3.864-1.84
		c1.472,0,2.807,0.644,3.681,1.794c1.104,1.426,1.012,2.715,1.058,4.417l0.46,15.273c0.046,1.564-0.184,3.312-2.162,3.312
		c-1.794,0-2.162-1.519-2.208-2.99l-0.46-14.584c-0.046-0.782,0.184-2.347-1.012-2.347c-0.644,0-1.472,1.104-1.84,1.519
		L171.721,165.97z"/>
	<path fill="#FFFFFF" d="M245.505,174.343c0.92,1.196,1.61,2.255,1.61,3.818c0,3.451-2.623,5.199-5.797,5.199h-10.121
		c-1.749,0-3.267-0.322-4.647-1.473c-1.242-1.012-2.162-2.668-2.162-4.278c0-1.472,0.828-2.76,2.438-2.76
		c1.334,0,2.163,1.104,2.163,2.346c0,1.38,0.736,1.564,2.024,1.564h9.983c0.368,0,1.519,0.138,1.519-0.553
		c0-0.367-0.645-1.058-0.828-1.334l-15.78-20.288c-0.966-1.242-1.518-2.162-1.518-3.772c0-1.84,0.874-3.404,2.438-4.416
		c1.288-0.828,2.346-0.828,3.818-0.828h9.754c1.748,0,3.22,0.368,4.554,1.518c1.196,1.059,2.163,2.761,2.163,4.371
		c0,1.472-0.736,2.668-2.393,2.668c-1.38,0-2.208-0.874-2.208-2.162c0-1.564-0.782-1.794-2.209-1.794h-9.753
		c-0.506,0-1.564-0.139-1.564,0.644c0,0.414,0.506,0.966,0.69,1.242L245.505,174.343z"/>
	<path fill="#FFFFFF" d="M263.856,175.033c0,2.484-0.092,3.91,2.944,3.91h2.254c1.795,0,2.623-0.138,3.083-1.932
		c0.275-1.059,1.104-1.795,2.208-1.795c1.242,0,2.254,0.967,2.254,2.209s-0.782,2.806-1.518,3.68
		c-1.61,1.933-3.727,2.255-6.073,2.255h-2.254c-2.208,0-4.141-0.506-5.705-2.209c-1.702-1.886-1.609-3.771-1.609-6.164V162.98
		h-1.427c-1.288,0-3.036-0.275-3.036-2.208c0-1.886,1.564-2.208,3.036-2.208h1.427v-4.509c0-1.519,0.321-3.036,2.208-3.036
		c1.886,0,2.208,1.518,2.208,3.036v4.509h7.407c1.472,0,3.036,0.322,3.036,2.208c0,1.933-1.748,2.208-3.036,2.208h-7.407V175.033z"
		/>
	<path fill="#FFFFFF" d="M291.364,162.98c-1.289,0-3.037-0.275-3.037-2.208c0-1.886,1.564-2.208,3.037-2.208h6.072
		c2.3,0,3.956,0.229,5.705,1.978c1.702,1.703,1.932,3.037,1.978,5.245l0.46,14.998c0.046,1.288-0.598,2.576-2.07,2.576
		c-1.149,0-2.3-0.967-2.254-2.209l-3.036,1.564c-1.242,0.645-1.288,0.645-2.715,0.645h-4.232c-1.978,0-3.404-0.23-5.015-1.564
		c-1.84-1.519-2.3-3.128-2.3-5.429v-1.932c0-2.117,0.506-3.451,2.162-4.923c1.519-1.334,3.221-1.656,5.152-1.656h9.478v-1.013
		c0-3.312-0.736-3.864-3.91-3.864H291.364z M291.317,172.273c-1.195,0-2.944,0.322-2.944,1.933v2.944
		c0,1.472,1.795,1.794,2.853,1.794h4.877l4.876-2.53v-0.966c0-2.438-0.689-3.175-3.128-3.175H291.317z"/>
	<path fill="#FFFFFF" d="M316.064,161.83c0-1.61,0.184-3.267,2.208-3.267c1.748,0,2.208,1.472,2.208,2.944v1.794l3.451-2.853
		c1.242-1.012,2.53-1.886,3.91-1.886h3.542c1.702,0,3.129,0.552,4.325,1.748c1.472,1.472,1.978,2.99,1.978,5.015
		c0,1.518-0.275,3.082-2.162,3.082c-1.61,0-2.254-1.288-2.254-2.714c0-0.736,0-1.288-0.46-1.933
		c-0.553-0.782-1.61-0.782-2.669-0.782h-1.288c-0.828,0-1.426,0.414-2.208,1.059l-6.165,5.106v11.18
		c0,1.518-0.321,3.036-2.208,3.036c-1.886,0-2.208-1.519-2.208-3.036V161.83z"/>
	<path fill="#FFFFFF" d="M352.083,175.033c0,2.484-0.093,3.91,2.944,3.91h2.254c1.794,0,2.622-0.138,3.082-1.932
		c0.276-1.059,1.104-1.795,2.208-1.795c1.242,0,2.255,0.967,2.255,2.209s-0.782,2.806-1.519,3.68
		c-1.61,1.933-3.727,2.255-6.072,2.255h-2.255c-2.208,0-4.14-0.506-5.704-2.209c-1.702-1.886-1.61-3.771-1.61-6.164V162.98h-1.426
		c-1.288,0-3.037-0.275-3.037-2.208c0-1.886,1.564-2.208,3.037-2.208h1.426v-4.509c0-1.519,0.322-3.036,2.208-3.036
		c1.887,0,2.209,1.518,2.209,3.036v4.509h7.406c1.473,0,3.036,0.322,3.036,2.208c0,1.933-1.748,2.208-3.036,2.208h-7.406V175.033z"
		/>
	<path fill="#FFFFFF" d="M380.28,183.361c-1.841,0-2.576,0-3.957-1.196l-1.886-1.656c-1.748-1.564-2.255-2.576-2.255-4.969v-8.511
		c0-2.347,0.322-3.727,2.163-5.291l1.563-1.334c2.07-1.794,3.083-1.84,4.877-1.84h4.048c2.163,0,3.175,0.229,4.877,1.61l1.794,1.426
		c2.024,1.61,2.301,3.312,2.301,5.751v3.542c0,2.53-0.414,3.267-3.036,3.267H376.6v1.472c0,0.414,0.322,0.967,0.644,1.288
		l1.104,1.196c0.598,0.645,1.473,0.828,2.944,0.828h9.478c1.472,0,3.036,0.322,3.036,2.208c0,1.933-1.748,2.209-3.036,2.209H380.28z
		 M376.6,169.742h12.789v-2.668c0-0.828,0.046-1.519-0.552-2.07l-1.702-1.472c-0.552-0.507-1.426-0.553-2.116-0.553h-3.727
		c-0.828,0-1.519,0-2.254,0.506l-1.519,1.104c-0.552,0.414-0.92,0.736-0.92,2.024V169.742z"/>
	<path fill="#FFFFFF" d="M403.002,161.83c0-1.61,0.185-3.267,2.209-3.267c1.748,0,2.208,1.472,2.208,2.944v1.794l3.45-2.853
		c1.242-1.012,2.53-1.886,3.91-1.886h3.543c1.702,0,3.128,0.552,4.324,1.748c1.473,1.472,1.979,2.99,1.979,5.015
		c0,1.518-0.276,3.082-2.162,3.082c-1.61,0-2.255-1.288-2.255-2.714c0-0.736,0-1.288-0.46-1.933
		c-0.552-0.782-1.61-0.782-2.668-0.782h-1.288c-0.828,0-1.427,0.414-2.208,1.059l-6.165,5.106v11.18
		c0,1.518-0.322,3.036-2.208,3.036c-1.887,0-2.209-1.519-2.209-3.036V161.83z"/>
</g>
</svg>
